<svg width="92" height="92" viewBox="0 0 92 92" fill="none" xmlns="http://www.w3.org/2000/svg">
<g clip-path="url(#clip0_1_591)">
<path fill-rule="evenodd" clip-rule="evenodd" d="M69.9739 0.15802C73.1492 0.15802 75.7239 2.73238 75.7239 5.90802V22.3366C75.7239 25.5122 73.1492 28.0866 69.9739 28.0866C66.7979 28.0866 64.2238 25.5122 64.2238 22.3366V5.90802C64.2238 2.73238 66.7979 0.15802 69.9739 0.15802ZM63.4024 38.7652C63.4024 35.1358 66.3445 32.1938 69.9739 32.1938C73.6033 32.1938 76.5453 35.1358 76.5453 38.7652C76.5453 42.3944 73.6033 45.3366 69.9739 45.3366C66.3445 45.3366 63.4024 42.3944 63.4024 38.7652ZM56.8302 22.3368V16.4288H13.1429C5.88426 16.4288 0 22.313 0 29.5716V78.8571C0 86.1159 5.88426 92 13.1429 92H62.4286C69.6874 92 75.5714 86.1159 75.5714 78.8571V51.1513C73.8642 51.9241 71.969 52.3542 69.9732 52.3542C62.4683 52.3542 56.3842 46.2701 56.3842 38.765C56.3842 35.5127 57.5266 32.5274 59.4321 30.1882C57.7977 27.9976 56.8302 25.2801 56.8302 22.3368Z" fill="white"/>
</g>
<defs>
<clipPath id="clip0_1_591">
<rect width="92" height="92" fill="white"/>
</clipPath>
</defs>
</svg>
