<svg width="87" height="87" viewBox="0 0 87 87" fill="none" xmlns="http://www.w3.org/2000/svg">
<path fill-rule="evenodd" clip-rule="evenodd" d="M4.08956 2.73018C5.83766 0.982075 8.20864 0 10.6808 0H45.3925C47.8647 0 50.2356 0.982075 51.9837 2.73018L73.2006 23.9471C74.9486 25.6952 75.9311 28.0661 75.9311 30.5383V77.6786C75.9311 80.1506 74.9486 82.522 73.2006 84.2701C71.4525 86.0181 69.0817 87 66.6097 87H10.6808C8.20857 87 5.83766 86.0181 4.08956 84.2701C2.34145 82.522 1.35938 80.1506 1.35938 77.6786V9.32143C1.35938 6.84926 2.34145 4.47829 4.08956 2.73018ZM33.1241 28.1406C35.2187 29.6367 35.7038 32.5476 34.2077 34.6422L25.5295 46.7916C24.7332 47.9064 23.4867 48.6144 22.1213 48.7274C20.756 48.8404 19.4101 48.347 18.4413 47.3782L13.2344 42.1713C11.4143 40.3512 11.4143 37.4002 13.2344 35.5801C15.0545 33.7599 18.0055 33.7599 19.8256 35.5801L21.1422 36.8966L26.6225 29.2242C28.1186 27.1296 31.0295 26.6444 33.1241 28.1406ZM39.0257 39.6161C39.0257 37.0421 41.1124 34.9554 43.6864 34.9554H59.2221C61.7962 34.9554 63.8829 37.0421 63.8829 39.6161C63.8829 42.1901 61.7962 44.2768 59.2221 44.2768H43.6864C41.1124 44.2768 39.0257 42.1901 39.0257 39.6161ZM39.0257 64.2793C39.0257 61.705 41.1124 59.6183 43.6864 59.6183H59.2221C61.7962 59.6183 63.8829 61.705 63.8829 64.2793C63.8829 66.8533 61.7962 68.94 59.2221 68.94H43.6864C41.1124 68.94 39.0257 66.8533 39.0257 64.2793ZM34.2077 59.6935C35.7038 57.5989 35.2187 54.6881 33.1241 53.1919C31.0295 51.6958 28.1186 52.1809 26.6225 54.2755L21.1422 61.9479L19.8256 60.6314C18.0055 58.8113 15.0545 58.8113 13.2344 60.6314C11.4143 62.4517 11.4143 65.4023 13.2344 67.2224L18.4413 72.4294C19.4101 73.3982 20.756 73.8916 22.1213 73.7785C23.4867 73.666 24.7332 72.9576 25.5295 71.8427L34.2077 59.6935Z" fill="white"/>
</svg>
