<svg width="102" height="102" viewBox="0 0 102 102" fill="none" xmlns="http://www.w3.org/2000/svg">
<path fill-rule="evenodd" clip-rule="evenodd" d="M7.28571 9.10712C5.35343 9.10712 3.50028 9.87474 2.13393 11.241C0.767601 12.6074 0 14.4605 0 16.3928V81.9643C0 84.8625 1.1514 87.6428 3.20091 89.6922C5.25041 91.7417 8.0301 92.8928 10.9286 92.8928H89.25C92.6313 92.8928 95.8742 91.5494 98.2653 89.1582C100.657 86.767 102 83.5241 102 80.1428V32.7857C102 30.7738 100.369 29.1428 98.3571 29.1428H91.2099V76.2013C91.2099 78.7163 89.1713 80.7548 86.6563 80.7548C84.1413 80.7548 82.1027 78.7163 82.1027 76.2013V27.2734C82.1027 27.1982 82.1042 27.1235 82.1078 27.0493V16.3928C82.1078 14.4605 81.3406 12.6074 79.9738 11.241C78.6078 9.87474 76.7543 9.10712 74.8221 9.10712H7.28571ZM20.3019 29.409C20.3019 27.3971 21.9328 25.7661 23.9447 25.7661H56.7304C58.7423 25.7661 60.3733 27.3971 60.3733 29.409V47.6233C60.3733 49.6351 58.7423 51.2661 56.7304 51.2661H23.9447C21.9328 51.2661 20.3019 49.6351 20.3019 47.6233V29.409ZM19.3911 71.0357C19.3911 68.5208 21.4298 66.4821 23.9447 66.4821H56.7304C59.2453 66.4821 61.284 68.5208 61.284 71.0357C61.284 73.5507 59.2453 75.5893 56.7304 75.5893H23.9447C21.4298 75.5893 19.3911 73.5507 19.3911 71.0357Z" fill="white"/>
</svg>
