<svg width="92" height="92" viewBox="0 0 92 92" fill="none" xmlns="http://www.w3.org/2000/svg">
<g clip-path="url(#clip0_1_612)">
<path fill-rule="evenodd" clip-rule="evenodd" d="M23 26.2857C30.2586 26.2857 36.1429 20.4015 36.1429 13.1429C36.1429 5.88425 30.2586 0 23 0C15.7414 0 9.85714 5.88425 9.85714 13.1429C9.85714 20.4015 15.7414 26.2857 23 26.2857ZM36.438 65.7143V65.5204C36.438 59.0133 40.031 53.3453 45.3413 50.3921C44.3495 46.3378 42.2637 42.594 39.2634 39.5937C34.9501 35.2804 29.1 32.8571 23 32.8571C16.9 32.8571 11.0499 35.2804 6.73657 39.5937C2.42321 43.907 0 49.7572 0 55.8571V62.4286C0 64.2432 1.47107 65.7143 3.28571 65.7143H9.85714L12.7831 89.1217C12.9886 90.7659 14.3864 92 16.0434 92H29.9566C31.6136 92 33.0114 90.7659 33.2169 89.1217L36.1429 65.7143H36.438ZM65.2346 50.5163C64.3272 50.5163 63.5917 51.2518 63.5917 52.1591V56.4363H72.8745V52.1591C72.8745 51.2518 72.1385 50.5163 71.2317 50.5163H65.2346ZM53.7346 52.1591V56.4363C48.7184 56.4373 44.6523 60.5041 44.6523 65.5204V82.9157C44.6523 87.9323 48.7195 91.9993 53.7364 91.9993H82.7284C87.745 91.9993 91.8121 87.9323 91.8121 82.9157V65.5204C91.8121 60.5045 87.747 56.4381 82.7317 56.4363V52.1591C82.7317 45.8079 77.5829 40.6591 71.2317 40.6591H65.2346C58.8833 40.6591 53.7346 45.8079 53.7346 52.1591Z" fill="white"/>
</g>
<defs>
<clipPath id="clip0_1_612">
<rect width="92" height="92" fill="white"/>
</clipPath>
</defs>
</svg>
